<?xml version="1.0" encoding="UTF-8" standalone="no"?>
<svg
   version="1.0"
   width="283.000000pt"
   height="281.000000pt"
   viewBox="0 0 283.000000 281.000000"
   preserveAspectRatio="xMidYMid meet"
   id="svg4"
   sodipodi:docname="logo-big-transparent.svg"
   inkscape:version="1.3 (0e150ed6c4, 2023-07-21)"
   xmlns:inkscape="http://www.inkscape.org/namespaces/inkscape"
   xmlns:sodipodi="http://sodipodi.sourceforge.net/DTD/sodipodi-0.dtd"
   xmlns="http://www.w3.org/2000/svg"
   xmlns:svg="http://www.w3.org/2000/svg">
  <defs
     id="defs4" />
  <sodipodi:namedview
     id="namedview4"
     pagecolor="#ffffff"
     bordercolor="#000000"
     borderopacity="0.25"
     inkscape:showpageshadow="2"
     inkscape:pageopacity="0.0"
     inkscape:pagecheckerboard="0"
     inkscape:deskcolor="#d1d1d1"
     inkscape:document-units="pt"
     inkscape:zoom="2.1912811"
     inkscape:cx="188.7024"
     inkscape:cy="187.33333"
     inkscape:window-width="1920"
     inkscape:window-height="1017"
     inkscape:window-x="-8"
     inkscape:window-y="-8"
     inkscape:window-maximized="1"
     inkscape:current-layer="g4" />
  <metadata
     id="metadata1">&#10;Created by potrace 1.15, written by Peter Selinger 2001-2017. Modified for LiteMigrator 2024&#10;</metadata>
  <g
     transform="translate(0.000000,281.000000) scale(0.100000,-0.100000)"
     fill="#000000"
     stroke="none"
     id="g4">
    <path
       d="M1005 2694 c-267 -26 -379 -51 -505 -111 -78 -37 -108 -59 -165 -118 -38 -39 -91 -107 -117 -151 -47 -78 -48 -82 -58 -199 -5 -66 -10 -214 -10 -330 0 -284 19 -925 30 -1002 18 -133 118 -292 228 -362 100 -64 314 -129 555 -171 137 -23 205 -26 367 -16 147 10 184 2 279 -55 35 -21 107 -56 160 -76 l96 -38 160 1 c173 1 259 17 373 69 201 92 335 354 336 655 2 240 -110 436 -335 585 -111 74 -153 125 -165 200 -3 24 2 114 11 202 10 87 20 182 23 212 2 30 -1 100 -8 155 -12 96 -16 105 -66 182 -170 259 -428 359 -949 369 -110 1 -218 1 -240 -1z m570 -43 c302 -45 473 -140 601 -333 37 -56 47 -81 60 -155 17 -96 16 -140 -12 -386 -28 -248 -7 -304 151 -409 153 -101 239 -201 294 -339 59 -148 63 -247 20 -449 -41 -187 -161 -362 -292 -424 -114 -53 -197 -69 -372 -70 -159 -1 -160 -1 -245 33 -47 18 -125 57 -175 85 l-89 51 -116 0 c-63 -1 -160 -2 -215 -3 -109 -3 -263 19 -437 63 -323 82 -440 165 -518 366 -29 76 -32 93 -41 282 -16 307 -17 1171 -1 1229 17 66 86 180 153 252 122 131 295 195 610 226 141 13 472 3 624 -19z"
       id="path1" />
    <path
       d="M1025 2564 c-143 -19 -192 -29 -275 -50 -213 -55 -380 -171 -414 -285 -24 -79 -24 -1429 -1 -1507 31 -104 163 -205 350 -267 147 -50 254 -66 477 -72 l206 -6 26 26 c31 31 33 56 8 87 -18 22 -25 23 -148 21 -334 -5 -648 77 -757 198 l-37 41 0 136 0 135 31 -22 c17 -12 67 -37 111 -56 160 -67 358 -103 576 -106 l144 -2 24 28 c30 35 30 52 1 81 -22 22 -33 23 -198 29 -313 10 -589 96 -665 207 -22 32 -24 44 -24 163 0 71 3 127 8 125 4 -2 39 -19 77 -39 94 -49 236 -93 370 -115 146 -24 458 -25 595 -1 278 48 475 144 558 271 l27 41 3 290 c4 337 2 345 -84 430 -93 91 -256 160 -475 201 -80 15 -444 28 -514 18z m490 -155 c184 -31 332 -89 405 -160 65 -63 66 -113 3 -175 -43 -43 -167 -103 -274 -133 -171 -48 -459 -65 -664 -40 -232 28 -451 117 -505 204 -46 74 -6 143 118 208 214 113 587 152 917 96z m450 -725 c-8 -43 -81 -109 -161 -145 -353 -160 -961 -142 -1246 37 -88 55 -98 77 -98 229 0 69 3 125 8 123 269 -137 421 -172 747 -172 216 0 318 13 480 59 89 26 211 78 250 108 20 15 20 14 23 -96 2 -62 0 -126 -3 -143z"
       id="path2" />
    <path
       d="M1915 1318 c-91 -17 -211 -83 -284 -156 -223 -224 -230 -574 -16 -800 118 -125 258 -186 425 -186 250 1 464 157 546 399 35 104 37 245 5 345 -77 242 -308 412 -556 409 -38 -1 -92 -5 -120 -11z m206 -128 c133 -25 256 -120 320 -247 33 -66 34 -71 34 -188 0 -114 -2 -123 -32 -188 -44 -93 -119 -169 -212 -215 -73 -36 -77 -37 -190 -37 -109 0 -120 2 -183 32 -162 77 -259 225 -260 398 -1 100 19 172 70 251 97 150 276 227 453 194z"
       id="path3" />
    <path
       d="m 2188.2782,916.89661 c -77,74 -141,126.99999 -155,126.99999 -20,0 -57,-27 -140,-102.99999 -94,-85 -105,-109 -72,-155 22,-32 66,-29 109,9 l 35,31 v -164 c 0,-147 2,-167 18,-181 25,-23 68,-21 92,3 18,18 20,33 20,175 0,85 4,155 8,155 5,0 19,-11 32,-25 29,-31 72,-33 100,-5 35,35 25,62 -47,133 z"
       id="path4" />
  </g>
</svg>
