<?xml version="1.0" encoding="UTF-8" standalone="no"?>
<svg
   version="1.0"
   width="52"
   height="52"
   viewBox="0 0 39 39"
   preserveAspectRatio="xMidYMid meet"
   id="svg14"
   sodipodi:docname="logo.svg"
   inkscape:version="1.3 (0e150ed6c4, 2023-07-21)"
   xmlns:inkscape="http://www.inkscape.org/namespaces/inkscape"
   xmlns:sodipodi="http://sodipodi.sourceforge.net/DTD/sodipodi-0.dtd"
   xmlns="http://www.w3.org/2000/svg"
   xmlns:svg="http://www.w3.org/2000/svg"
   xmlns:rdf="http://www.w3.org/1999/02/22-rdf-syntax-ns#"
   xmlns:cc="http://creativecommons.org/ns#"
   xmlns:dc="http://purl.org/dc/elements/1.1/">
  <defs
     id="defs18" />
  <sodipodi:namedview
     pagecolor="#ffffff"
     bordercolor="#666666"
     borderopacity="1"
     objecttolerance="10"
     gridtolerance="10"
     guidetolerance="10"
     inkscape:pageopacity="0"
     inkscape:pageshadow="2"
     inkscape:window-width="1920"
     inkscape:window-height="1017"
     id="namedview16"
     showgrid="false"
     inkscape:zoom="14.252857"
     inkscape:cx="37.641576"
     inkscape:cy="23.468979"
     inkscape:window-x="-8"
     inkscape:window-y="-8"
     inkscape:window-maximized="1"
     inkscape:current-layer="svg14"
     units="px"
     inkscape:showpageshadow="2"
     inkscape:pagecheckerboard="0"
     inkscape:deskcolor="#d1d1d1" />
  <metadata
     id="metadata2">&#10;Created by potrace 1.15, written by Peter Selinger 2001-2017. Modified for LiteMigrator 2024&#10;<rdf:RDF>
  <cc:Work
     rdf:about="">
    <dc:format>image/svg+xml</dc:format>
    <dc:type
       rdf:resource="http://purl.org/dc/dcmitype/StillImage" />
    <dc:title />
  </cc:Work>
</rdf:RDF>
</metadata>
  <g
     transform="matrix(0.01451224,0,0,-0.01425499,-1.426836,39.176576)"
     id="g12"
     style="fill:#000000;stroke:none">
    <path
       d="m 1005,2694 c -267,-26 -379,-51 -505,-111 -78,-37 -108,-59 -165,-118 -38,-39 -91,-107 -117,-151 -47,-78 -48,-82 -58,-199 -5,-66 -10,-214 -10,-330 0,-284 19,-925 30,-1002 18,-133 118,-292 228,-362 100,-64 314,-129 555,-171 137,-23 205,-26 367,-16 147,10 184,2 279,-55 35,-21 107,-56 160,-76 l 96,-38 160,1 c 173,1 259,17 373,69 201,92 335,354 336,655 2,240 -110,436 -335,585 -111,74 -153,125 -165,200 -3,24 2,114 11,202 10,87 20,182 23,212 2,30 -1,100 -8,155 -12,96 -16,105 -66,182 -170,259 -428,359 -949,369 -110,1 -218,1 -240,-1 z m 570,-43 c 302,-45 473,-140 601,-333 37,-56 47,-81 60,-155 17,-96 16,-140 -12,-386 -28,-248 -7,-304 151,-409 153,-101 239,-201 294,-339 59,-148 63,-247 20,-449 -41,-187 -161,-362 -292,-424 -114,-53 -197,-69 -372,-70 -159,-1 -160,-1 -245,33 -47,18 -125,57 -175,85 l -89,51 h -116 c -63,-1 -160,-2 -215,-3 -109,-3 -263,19 -437,63 -323,82 -440,165 -518,366 -29,76 -32,93 -41,282 -16,307 -17,1171 -1,1229 17,66 86,180 153,252 122,131 295,195 610,226 141,13 472,3 624,-19 z"
       id="path4"
       inkscape:connector-curvature="0" />
    <path
       d="M 1025,2564 C 882,2545 833,2535 750,2514 537,2459 370,2343 336,2229 312,2150 312,800 335,722 366,618 498,517 685,455 832,405 939,389 1162,383 l 206,-6 26,26 c 31,31 33,56 8,87 -18,22 -25,23 -148,21 -334,-5 -648,77 -757,198 l -37,41 v 136 135 l 31,-22 c 17,-12 67,-37 111,-56 160,-67 358,-103 576,-106 l 144,-2 24,28 c 30,35 30,52 1,81 -22,22 -33,23 -198,29 -313,10 -589,96 -665,207 -22,32 -24,44 -24,163 0,71 3,127 8,125 4,-2 39,-19 77,-39 94,-49 236,-93 370,-115 146,-24 458,-25 595,-1 278,48 475,144 558,271 l 27,41 3,290 c 4,337 2,345 -84,430 -93,91 -256,160 -475,201 -80,15 -444,28 -514,18 z m 490,-155 c 184,-31 332,-89 405,-160 65,-63 66,-113 3,-175 -43,-43 -167,-103 -274,-133 -171,-48 -459,-65 -664,-40 -232,28 -451,117 -505,204 -46,74 -6,143 118,208 214,113 587,152 917,96 z m 450,-725 c -8,-43 -81,-109 -161,-145 -353,-160 -961,-142 -1246,37 -88,55 -98,77 -98,229 0,69 3,125 8,123 269,-137 421,-172 747,-172 216,0 318,13 480,59 89,26 211,78 250,108 20,15 20,14 23,-96 2,-62 0,-126 -3,-143 z"
       id="path6"
       inkscape:connector-curvature="0" />
    <path
       d="m 1915,1318 c -91,-17 -211,-83 -284,-156 -223,-224 -230,-574 -16,-800 118,-125 258,-186 425,-186 250,1 464,157 546,399 35,104 37,245 5,345 -77,242 -308,412 -556,409 -38,-1 -92,-5 -120,-11 z m 206,-128 c 133,-25 256,-120 320,-247 33,-66 34,-71 34,-188 0,-114 -2,-123 -32,-188 -44,-93 -119,-169 -212,-215 -73,-36 -77,-37 -190,-37 -109,0 -120,2 -183,32 -162,77 -259,225 -260,398 -1,100 19,172 70,251 97,150 276,227 453,194 z"
       id="path8"
       inkscape:connector-curvature="0" />
    <path
       d="m 2185.4652,919.83071 c -75.6351,75.33543 -138.5006,129.29189 -152.2524,129.29189 -19.6455,0 -55.9896,-27.4873 -137.5183,-104.85877 -92.3337,-86.53394 -103.1388,-110.96705 -70.7237,-157.79718 21.61,-32.57748 64.83,-29.52335 107.0678,9.16241 l 34.3796,31.55944 V 660.22891 c 0,-149.65281 1.9645,-170.01374 17.6809,-184.26639 24.5568,-23.41506 66.7946,-21.37897 90.3692,3.05414 17.6809,18.32484 19.6454,33.59553 19.6454,178.15811 0,86.53393 3.9291,157.79717 7.8582,157.79717 4.9114,0 18.6632,-11.1985 31.4328,-25.45115 28.4859,-31.55944 70.7237,-33.59553 98.2273,-5.09023 34.3796,35.63162 24.5569,63.11887 -46.1668,135.40015 z"
       id="path10"
       inkscape:connector-curvature="0" />
  </g>
  <path
     style="fill:#ffffff;stroke-width:0.07016137"
     d="m 34.070221,50.441423 c -1.126602,-0.244667 -3.295544,-1.21392 -5.544025,-2.477505 l -1.003038,-0.563679 -4.469549,-0.03 C 19.409629,47.345784 18.435025,47.319014 17.777204,47.22531 13.138294,46.56452 8.618995,45.274941 6.461675,43.99643 4.7965871,43.009636 3.806081,41.905776 2.9366823,40.068037 2.1759364,38.459968 1.9861097,37.600258 1.8502823,35.147816 1.6704802,31.901386 1.6298485,29.906758 1.5930218,22.518769 1.5511834,14.125374 1.6078249,11.13711 1.8224564,10.414367 1.9802808,9.8829149 2.5947313,8.6830832 3.115157,7.8901229 5.4503612,4.3320286 8.192372,2.7596922 13.567521,1.8964805 c 2.522788,-0.4051422 2.856661,-0.426274 6.700411,-0.4240878 5.491582,0.00312 8.269755,0.2474665 11.2609,0.9904075 3.865822,0.9601934 6.404937,2.6000063 8.449089,5.4565952 0.848081,1.1851465 1.119271,1.8489187 1.363963,3.3384736 0.289391,1.761655 0.27063,2.591105 -0.140445,6.209281 -0.27002,2.376637 -0.338479,4.444762 -0.172944,5.224554 0.06115,0.288058 0.223635,0.760539 0.36108,1.049959 0.331598,0.698249 1.156679,1.512156 2.347407,2.315613 3.099551,2.091459 4.465632,3.50901 5.582615,5.792955 1.306178,2.6708 1.590744,4.834605 1.04614,7.954731 -0.390857,2.239281 -0.885721,3.694521 -1.799131,5.290676 -0.798369,1.395128 -2.038129,2.812181 -3.106491,3.550738 -1.411138,0.97552 -3.558029,1.653448 -5.789048,1.828021 -1.382607,0.108186 -5.050283,0.08659 -5.600846,-0.03297 z m 4.555016,-1.580777 c 1.4852,-0.151013 2.665687,-0.487014 3.954011,-1.125427 1.094456,-0.542344 1.997798,-1.19242 2.872596,-2.067218 1.595952,-1.595952 2.713225,-3.721584 3.095652,-5.889535 0.169691,-0.961965 0.17254,-2.907011 0.0056,-3.823795 -0.168011,-0.922667 -0.540642,-1.995506 -0.997686,-2.872428 -1.707183,-3.27554 -4.94541,-5.559685 -8.569189,-6.044439 -0.781998,-0.104607 -3.081426,-0.03874 -3.807258,0.10906 -2.190033,0.445954 -4.722604,1.943735 -6.17594,3.652496 -2.564335,3.015018 -3.350658,6.885953 -2.139578,10.532778 0.538684,1.622098 1.339277,2.880492 2.696997,4.239217 1.993091,1.994566 4.067985,2.999849 6.782617,3.286166 0.810281,0.08546 1.463605,0.08636 2.282178,0.0031 z M 25.064996,44.618045 c 0.235436,-0.251682 0.448179,-0.537743 0.472762,-0.63569 0.07447,-0.296708 -0.0195,-0.722182 -0.216555,-0.980536 C 24.937704,42.499026 25.067712,42.519553 21.955,42.470321 19.102384,42.425202 18.058718,42.350525 16.128411,42.05341 13.707762,41.680821 11.387052,41.000197 9.8323187,40.206876 8.8933519,39.727758 8.4643684,39.418218 7.7265872,38.687453 L 7.0425139,38.009886 v -2.540218 c 0,-2.012685 0.018213,-2.529592 0.087702,-2.489056 0.048236,0.02814 0.2139922,0.136394 0.3683472,0.240567 0.6779617,0.457551 2.2406567,1.159203 3.6084559,1.6202 2.961461,0.998116 5.902826,1.433481 10.213469,1.511742 l 2.385622,0.04331 0.31997,-0.378744 c 0.479942,-0.5681 0.556801,-0.702506 0.556514,-0.973187 -4.91e-4,-0.465044 -0.452609,-0.962096 -1.017077,-1.118164 -0.154355,-0.04268 -1.275183,-0.125189 -2.490729,-0.183359 C 17.516417,33.572689 15.680478,33.344374 13.444692,32.79411 10.12342,31.976691 7.9116749,30.753425 7.2667417,29.377228 L 7.0775945,28.973615 v -2.256891 c 0,-1.241289 0.020314,-2.277189 0.045142,-2.301999 0.024828,-0.02481 0.4949129,0.180204 1.0446323,0.455588 1.7946098,0.899017 3.3666002,1.467567 5.4293562,1.963664 2.156535,0.518652 3.417361,0.672564 6.305626,0.769743 2.186546,0.07357 4.97756,-0.0021 6.476081,-0.175512 2.630475,-0.304454 5.750778,-1.168729 7.760981,-2.149669 1.921748,-0.937776 3.218384,-1.978702 4.087058,-3.281048 l 0.447872,-0.671466 0.04569,-4.665731 c 0.05617,-5.736781 0.002,-6.617859 -0.4689,-7.6275096 C 38.037287,8.5742931 36.865395,7.3814946 36.066814,6.8094983 35.343795,6.2916244 33.798569,5.4989171 32.788676,5.1277991 31.169498,4.5327799 28.792768,3.9282678 27.389311,3.754492 25.753945,3.552001 21.18903,3.3652165 19.215512,3.4200412 16.67363,3.4906554 13.058931,4.1611645 10.778992,4.984975 7.2853925,6.2473177 4.7807944,8.3361013 4.5165359,10.207735 c -0.3251138,2.302648 -0.3774029,23.4601 -0.067774,27.423174 0.063924,0.818195 0.089824,0.926818 0.3447697,1.445943 0.6301857,1.283197 1.9604975,2.459673 3.9050702,3.45349 1.9533272,0.998292 4.8022202,1.84451 7.2544062,2.154807 1.507437,0.190749 4.716294,0.351329 7.586924,0.37967 l 1.096997,0.01083 z"
     id="path17"
     inkscape:connector-curvature="0"
     transform="scale(0.75)" />
  <path
     style="fill:#ffffff;stroke-width:0.052621"
     d="m 21.914089,27.018707 c 0.0833,-0.537626 0.468881,-1.417171 0.934239,-2.131093 0.342242,-0.525046 1.0586,-1.288284 1.553163,-1.654805 0.729754,-0.540823 1.60687,-0.913534 2.545163,-1.081511 0.752983,-0.134802 2.077366,-0.09009 2.773252,0.09364 0.999288,0.263824 1.899863,0.78562 2.712138,1.571423 0.952455,0.921414 1.555718,2.020167 1.844901,3.360212 0.127647,0.591505 0.129766,1.955926 0.0039,2.511355 -0.285143,1.258298 -0.845826,2.288078 -1.759962,3.232441 -0.588838,0.608307 -1.197687,1.053042 -1.922981,1.404647 -0.788999,0.382488 -0.905216,0.401069 -2.482938,0.396969 -1.615385,-0.0042 -1.81338,-0.03874 -2.683672,-0.468315 -1.383121,-0.682696 -2.435474,-1.777398 -3.135711,-3.261901 -0.380306,-0.806249 -0.415528,-1.026518 -0.408129,-2.552291 0.0035,-0.709068 0.01543,-1.348414 0.02663,-1.420768 z m 3.143114,0.737455 c 0.394371,0.595935 1.025843,0.546855 1.764655,-0.137155 l 0.302806,-0.280345 0.03459,2.168503 c 0.03465,2.172018 0.06739,2.553488 0.23509,2.738789 0.370052,0.408903 1.192255,0.322124 1.48843,-0.157097 0.111015,-0.179627 0.12378,-0.279608 0.159759,-1.251385 0.02151,-0.580888 0.04298,-1.458712 0.04772,-1.950718 0.0047,-0.492007 0.02403,-1.021186 0.04287,-1.175954 l 0.03426,-0.281395 0.363387,0.321204 c 0.410619,0.362955 0.643614,0.456357 1.003691,0.402361 0.196046,-0.0294 0.298043,-0.08705 0.500697,-0.283021 0.490468,-0.474285 0.397717,-0.836796 -0.441794,-1.726723 -0.843045,-0.893673 -2.112462,-1.984257 -2.391009,-2.054168 -0.301884,-0.07577 -1.034838,0.480148 -2.395255,1.816704 -0.750398,0.737237 -0.942768,1.029844 -0.912457,1.387912 0.01303,0.15386 0.075,0.330176 0.162557,0.462488 z"
     id="path19"
     inkscape:connector-curvature="0" />
  <path
     style="fill:#ffffff;stroke-width:0.07016137"
     d="M 19.250592,24.962787 C 15.136913,24.673604 11.75443,23.827038 9.3162484,22.476423 7.9728393,21.732251 7.3819116,21.135077 7.1809588,20.318563 7.0831709,19.92123 7.0070775,16.932682 7.0760168,16.196997 c 0.042152,-0.449827 0.067766,-0.526431 0.1660323,-0.496558 0.063905,0.01943 0.6529254,0.286237 1.3089342,0.59291 3.6615977,1.711737 6.2525727,2.343408 10.4189637,2.540111 3.559896,0.168069 6.96392,0.0117 9.244674,-0.424665 0.931989,-0.178314 2.212991,-0.495462 3.138808,-0.777102 1.410059,-0.428949 3.554465,-1.353496 4.330568,-1.867096 0.217557,-0.143973 0.288041,-0.162808 0.33357,-0.08914 0.08706,0.140866 0.164487,2.27088 0.126128,3.469792 -0.03798,1.186919 -0.08226,1.344589 -0.539427,1.920645 -1.545763,1.947741 -6.04327,3.469898 -11.44238,3.872612 -0.853688,0.06368 -4.1211,0.07983 -4.911296,0.02428 z"
     id="path21"
     inkscape:connector-curvature="0"
     transform="scale(0.75)" />
  <path
     style="fill:#ffffff;stroke-width:0.07016137"
     d="M 19.706641,16.267898 C 15.749396,16.070754 12.399848,15.308939 9.8193431,14.01915 8.4200283,13.319744 7.612821,12.650082 7.2668688,11.90161 6.681243,10.6346 7.5058502,9.4334432 9.756254,8.2754679 15.092211,5.5297804 25.468173,5.2371777 31.926869,7.6502553 c 2.548913,0.9523169 4.231243,2.3587977 4.231243,3.5374517 0,0.97948 -1.159961,2.086127 -3.137589,2.993383 -2.448358,1.123207 -4.624556,1.642851 -8.157021,1.947775 -1.218611,0.105191 -4.214724,0.185968 -5.156861,0.139033 z"
     id="path23"
     inkscape:connector-curvature="0"
     transform="scale(0.75)" />
</svg>
